<svg id="Group_57" data-name="Group 57" xmlns="http://www.w3.org/2000/svg" xmlns:xlink="http://www.w3.org/1999/xlink" width="270.949" height="90.439" viewBox="0 0 270.949 90.439">
  <defs>
    <clipPath id="clip-path">
      <rect id="Rectangle_42" data-name="Rectangle 42" width="270.949" height="90.439" fill="none"/>
    </clipPath>
  </defs>
  <g id="Group_56" data-name="Group 56" clip-path="url(#clip-path)">
    <path id="Path_63" data-name="Path 63" d="M72.829,54.826l-1.542,5.651H70.9l-1.211-4.267c-.029-.091-.053-.177-.076-.257s-.042-.159-.062-.233-.036-.144-.053-.209-.03-.125-.041-.18c-.011.054-.021.112-.033.172s-.026.122-.041.187-.032.132-.05.2-.038.142-.057.216l-1.206,4.368h-.391l-1.522-5.651h.41l1.063,3.986c.029.106.054.206.079.3s.048.187.068.277.041.175.06.26.036.168.051.252q.027-.127.054-.258c.018-.088.038-.177.06-.268s.045-.183.07-.28.051-.2.083-.3l1.109-3.966h.4l1.152,3.989c.032.112.06.216.086.314s.048.19.07.28.039.175.057.258l.054.254c.021-.116.042-.23.063-.342s.048-.231.08-.354.065-.26.1-.407l1.085-3.993Z" transform="translate(33.839 28.043)" fill="#77af2e"/>
    <path id="Path_64" data-name="Path 64" d="M73.135,54.586v1.963c0,.113,0,.219-.008.317s-.008.2-.017.3h.029a1.339,1.339,0,0,1,.3-.429,1.413,1.413,0,0,1,.482-.3,1.828,1.828,0,0,1,.67-.113,1.784,1.784,0,0,1,.8.165,1.092,1.092,0,0,1,.5.5,1.925,1.925,0,0,1,.169.866V60.6h-.387V57.877a1.277,1.277,0,0,0-.286-.921,1.1,1.1,0,0,0-.831-.295,1.566,1.566,0,0,0-.78.18,1.147,1.147,0,0,0-.481.541,2.23,2.23,0,0,0-.16.9V60.6h-.391V54.586Z" transform="translate(37.208 27.92)" fill="#77af2e"/>
    <path id="Path_65" data-name="Path 65" d="M79.1,55.731a1.439,1.439,0,0,1,1.428.94,2.686,2.686,0,0,1,.175,1v.283H77.667a1.975,1.975,0,0,0,.4,1.33,1.428,1.428,0,0,0,1.146.464,3.179,3.179,0,0,0,.679-.063,3.494,3.494,0,0,0,.639-.219v.36a2.955,2.955,0,0,1-.618.2,3.553,3.553,0,0,1-.71.063,2.01,2.01,0,0,1-1.07-.265,1.652,1.652,0,0,1-.648-.748,2.7,2.7,0,0,1-.219-1.128,2.908,2.908,0,0,1,.212-1.134,1.8,1.8,0,0,1,.618-.794,1.677,1.677,0,0,1,1-.293m0,.337a1.272,1.272,0,0,0-.976.4,1.885,1.885,0,0,0-.438,1.153H80.3a2.308,2.308,0,0,0-.132-.812,1.153,1.153,0,0,0-.4-.547,1.1,1.1,0,0,0-.674-.195" transform="translate(39.521 28.506)" fill="#77af2e"/>
    <path id="Path_66" data-name="Path 66" d="M83.56,55.737a2.286,2.286,0,0,1,.313.02,1.846,1.846,0,0,1,.275.054l-.062.358a2.136,2.136,0,0,0-.26-.051,2.043,2.043,0,0,0-.281-.018,1.2,1.2,0,0,0-.532.113,1.1,1.1,0,0,0-.4.32,1.485,1.485,0,0,0-.248.5,2.4,2.4,0,0,0-.085.657v2.32H81.89v-4.2h.337l.038.792h.024a1.4,1.4,0,0,1,.272-.438,1.28,1.28,0,0,1,.426-.311,1.356,1.356,0,0,1,.573-.116" transform="translate(41.886 28.509)" fill="#77af2e"/>
    <path id="Path_67" data-name="Path 67" d="M87.188,55.731a1.439,1.439,0,0,1,1.428.94,2.686,2.686,0,0,1,.175,1v.283H85.757a1.975,1.975,0,0,0,.4,1.33,1.428,1.428,0,0,0,1.146.464,3.179,3.179,0,0,0,.679-.063,3.5,3.5,0,0,0,.639-.219v.36a2.956,2.956,0,0,1-.618.2,3.553,3.553,0,0,1-.71.063,2.01,2.01,0,0,1-1.07-.265,1.652,1.652,0,0,1-.648-.748,2.7,2.7,0,0,1-.219-1.128,2.909,2.909,0,0,1,.212-1.134,1.8,1.8,0,0,1,.618-.794,1.677,1.677,0,0,1,1-.293m0,.337a1.272,1.272,0,0,0-.976.4,1.886,1.886,0,0,0-.438,1.153h2.616a2.308,2.308,0,0,0-.132-.812,1.154,1.154,0,0,0-.4-.547,1.1,1.1,0,0,0-.674-.195" transform="translate(43.659 28.506)" fill="#77af2e"/>
    <path id="Path_68" data-name="Path 68" d="M94.725,60.478h-.4V55.186H92.491v-.36h4.066v.36H94.725Z" transform="translate(47.309 28.043)" fill="#77af2e"/>
    <path id="Path_69" data-name="Path 69" d="M98.932,55.737a2.286,2.286,0,0,1,.313.02,1.845,1.845,0,0,1,.275.054l-.062.358a2.137,2.137,0,0,0-.26-.051,2.043,2.043,0,0,0-.281-.018,1.2,1.2,0,0,0-.532.113,1.1,1.1,0,0,0-.4.32,1.486,1.486,0,0,0-.248.5,2.4,2.4,0,0,0-.085.657v2.32h-.394v-4.2H97.6l.038.792h.024a1.4,1.4,0,0,1,.272-.438,1.28,1.28,0,0,1,.426-.311,1.356,1.356,0,0,1,.573-.116" transform="translate(49.749 28.509)" fill="#77af2e"/>
    <path id="Path_70" data-name="Path 70" d="M102.464,55.737a1.4,1.4,0,0,1,1.037.348,1.533,1.533,0,0,1,.343,1.109v2.817h-.3l-.07-.735h-.024a1.787,1.787,0,0,1-.328.42,1.374,1.374,0,0,1-.473.287,1.968,1.968,0,0,1-.683.1,1.614,1.614,0,0,1-.694-.135,1.009,1.009,0,0,1-.444-.395,1.2,1.2,0,0,1-.156-.63,1.058,1.058,0,0,1,.517-.952,3.055,3.055,0,0,1,1.489-.369l.781-.039v-.305a1.34,1.34,0,0,0-.255-.921.981.981,0,0,0-.754-.274,2.3,2.3,0,0,0-.624.083,3.37,3.37,0,0,0-.609.237l-.124-.325a3.824,3.824,0,0,1,.648-.236,2.771,2.771,0,0,1,.724-.092m.99,2.137-.735.03a2.71,2.71,0,0,0-1.218.287.808.808,0,0,0-.417.742.76.76,0,0,0,.249.611,1.035,1.035,0,0,0,.694.213,1.372,1.372,0,0,0,1.058-.395,1.536,1.536,0,0,0,.369-1.075Z" transform="translate(51.493 28.509)" fill="#77af2e"/>
    <path id="Path_71" data-name="Path 71" d="M107.1,55.732a1.488,1.488,0,0,1,1.087.372,1.565,1.565,0,0,1,.378,1.162v2.749h-.385V57.29a1.275,1.275,0,0,0-.287-.921,1.1,1.1,0,0,0-.831-.293,1.352,1.352,0,0,0-1.057.4,1.769,1.769,0,0,0-.366,1.22v2.316h-.39v-4.2h.317l.057.765h.023a1.5,1.5,0,0,1,.308-.426,1.442,1.442,0,0,1,.481-.307,1.8,1.8,0,0,1,.665-.113" transform="translate(53.833 28.507)" fill="#77af2e"/>
    <path id="Path_72" data-name="Path 72" d="M112.672,58.913a1.076,1.076,0,0,1-.187.639,1.142,1.142,0,0,1-.547.4,2.484,2.484,0,0,1-.886.138,3.588,3.588,0,0,1-.78-.077,2.706,2.706,0,0,1-.576-.189v-.387a3.232,3.232,0,0,0,.641.231,2.956,2.956,0,0,0,.722.089,1.541,1.541,0,0,0,.936-.221.717.717,0,0,0,.287-.6.622.622,0,0,0-.142-.416,1.159,1.159,0,0,0-.4-.284,6.736,6.736,0,0,0-.633-.243q-.388-.132-.686-.26a1.18,1.18,0,0,1-.47-.345.92.92,0,0,1-.171-.585.906.906,0,0,1,.407-.789,1.87,1.87,0,0,1,1.09-.283,3.354,3.354,0,0,1,.706.071,3.567,3.567,0,0,1,.594.184l-.141.333a2.539,2.539,0,0,0-.552-.181,2.86,2.86,0,0,0-.627-.07,1.516,1.516,0,0,0-.8.181.592.592,0,0,0-.289.534.6.6,0,0,0,.139.423,1.07,1.07,0,0,0,.4.255c.172.068.378.144.615.225s.47.174.679.268a1.345,1.345,0,0,1,.5.36.9.9,0,0,1,.186.6" transform="translate(56.109 28.506)" fill="#77af2e"/>
    <path id="Path_73" data-name="Path 73" d="M115.532,55.737a1.4,1.4,0,0,1,1.037.348,1.533,1.533,0,0,1,.343,1.109v2.817h-.3l-.07-.735h-.024a1.788,1.788,0,0,1-.328.42,1.374,1.374,0,0,1-.473.287,1.968,1.968,0,0,1-.683.1,1.614,1.614,0,0,1-.694-.135,1.009,1.009,0,0,1-.444-.395,1.2,1.2,0,0,1-.156-.63,1.058,1.058,0,0,1,.517-.952,3.055,3.055,0,0,1,1.489-.369l.781-.039v-.305a1.34,1.34,0,0,0-.255-.921.981.981,0,0,0-.754-.274,2.3,2.3,0,0,0-.624.083,3.327,3.327,0,0,0-.609.237l-.124-.325a3.823,3.823,0,0,1,.648-.236,2.771,2.771,0,0,1,.724-.092m.99,2.137-.735.03a2.71,2.71,0,0,0-1.218.287.808.808,0,0,0-.417.742.76.76,0,0,0,.249.611,1.035,1.035,0,0,0,.694.213,1.372,1.372,0,0,0,1.058-.395,1.536,1.536,0,0,0,.369-1.075Z" transform="translate(58.177 28.509)" fill="#77af2e"/>
    <path id="Path_74" data-name="Path 74" d="M120.083,60.093a2.006,2.006,0,0,1-1.057-.261,1.616,1.616,0,0,1-.65-.745,2.769,2.769,0,0,1-.219-1.15,2.578,2.578,0,0,1,.252-1.185,1.774,1.774,0,0,1,.707-.756,2.1,2.1,0,0,1,1.07-.263,2.725,2.725,0,0,1,.561.054,2.143,2.143,0,0,1,.467.151l-.1.343a2.266,2.266,0,0,0-.46-.147,2.333,2.333,0,0,0-.469-.05,1.631,1.631,0,0,0-.878.225,1.45,1.45,0,0,0-.553.642,2.33,2.33,0,0,0-.192.979,2.513,2.513,0,0,0,.163.939,1.374,1.374,0,0,0,.5.641,1.476,1.476,0,0,0,.862.234,2.682,2.682,0,0,0,.582-.062,2.867,2.867,0,0,0,.5-.159v.355a2.4,2.4,0,0,1-.475.153,2.762,2.762,0,0,1-.612.06" transform="translate(60.437 28.507)" fill="#77af2e"/>
    <path id="Path_75" data-name="Path 75" d="M123.73,60.072a1.982,1.982,0,0,0,.339-.027,1.678,1.678,0,0,0,.277-.07V60.3a2.353,2.353,0,0,1-.29.076,1.962,1.962,0,0,1-.367.033,1.183,1.183,0,0,1-.591-.135.832.832,0,0,1-.357-.405,1.727,1.727,0,0,1-.119-.694V56.454h-.626v-.231l.621-.121.136-.989h.258v1.016h1.31v.325h-1.31v2.7a1.158,1.158,0,0,0,.169.686.631.631,0,0,0,.55.234" transform="translate(62.4 28.19)" fill="#77af2e"/>
    <path id="Path_76" data-name="Path 76" d="M125.957,54.757a.261.261,0,0,1,.218.088.424.424,0,0,1,0,.466.268.268,0,0,1-.218.085.257.257,0,0,1-.209-.085.424.424,0,0,1,0-.466.25.25,0,0,1,.209-.088m.19,5.756h-.39v-4.2h.39Z" transform="translate(64.284 28.008)" fill="#77af2e"/>
    <path id="Path_77" data-name="Path 77" d="M132.07,57.908a3.079,3.079,0,0,1-.121.887,1.994,1.994,0,0,1-.355.691,1.6,1.6,0,0,1-.586.447,1.947,1.947,0,0,1-.813.159,1.855,1.855,0,0,1-.784-.157,1.593,1.593,0,0,1-.582-.446,2,2,0,0,1-.361-.689,2.992,2.992,0,0,1-.124-.892,2.749,2.749,0,0,1,.227-1.165,1.679,1.679,0,0,1,.648-.75,1.9,1.9,0,0,1,1.016-.261,1.788,1.788,0,0,1,1.019.277,1.687,1.687,0,0,1,.612.768,2.926,2.926,0,0,1,.206,1.132m-3.325,0a2.683,2.683,0,0,0,.159.966,1.386,1.386,0,0,0,.481.647,1.372,1.372,0,0,0,.818.231,1.4,1.4,0,0,0,.831-.231,1.356,1.356,0,0,0,.479-.65,2.737,2.737,0,0,0,.156-.963,2.8,2.8,0,0,0-.148-.943,1.353,1.353,0,0,0-.464-.651,1.338,1.338,0,0,0-.827-.237,1.316,1.316,0,0,0-1.108.487,2.15,2.15,0,0,0-.376,1.345" transform="translate(65.647 28.506)" fill="#77af2e"/>
    <path id="Path_78" data-name="Path 78" d="M135.012,55.732a1.488,1.488,0,0,1,1.087.372,1.565,1.565,0,0,1,.378,1.162v2.749h-.385V57.29a1.282,1.282,0,0,0-.287-.921,1.1,1.1,0,0,0-.831-.293,1.352,1.352,0,0,0-1.057.4,1.769,1.769,0,0,0-.366,1.22v2.316h-.39v-4.2h.317l.057.765h.023a1.475,1.475,0,0,1,.308-.426,1.443,1.443,0,0,1,.481-.307,1.8,1.8,0,0,1,.665-.113" transform="translate(68.111 28.507)" fill="#77af2e"/>
    <path id="Path_79" data-name="Path 79" d="M140.586,58.913a1.076,1.076,0,0,1-.187.639,1.142,1.142,0,0,1-.547.4,2.484,2.484,0,0,1-.886.138,3.578,3.578,0,0,1-.78-.077,2.706,2.706,0,0,1-.576-.189v-.387a3.232,3.232,0,0,0,.641.231,2.955,2.955,0,0,0,.722.089,1.541,1.541,0,0,0,.936-.221.717.717,0,0,0,.287-.6.622.622,0,0,0-.142-.416,1.16,1.16,0,0,0-.4-.284,6.737,6.737,0,0,0-.633-.243q-.388-.132-.686-.26a1.169,1.169,0,0,1-.47-.345.919.919,0,0,1-.171-.585.906.906,0,0,1,.407-.789,1.87,1.87,0,0,1,1.09-.283,3.355,3.355,0,0,1,.706.071,3.567,3.567,0,0,1,.594.184l-.141.333a2.539,2.539,0,0,0-.552-.181,2.859,2.859,0,0,0-.627-.07,1.516,1.516,0,0,0-.8.181.592.592,0,0,0-.289.534.6.6,0,0,0,.139.423,1.07,1.07,0,0,0,.4.255c.172.068.378.144.615.225s.47.174.679.268a1.345,1.345,0,0,1,.5.36.9.9,0,0,1,.186.6" transform="translate(70.387 28.506)" fill="#77af2e"/>
    <path id="Path_80" data-name="Path 80" d="M148.117,59.048a1.375,1.375,0,0,1-.255.848,1.543,1.543,0,0,1-.692.515,2.674,2.674,0,0,1-.988.171,5.563,5.563,0,0,1-.624-.032,4.42,4.42,0,0,1-.506-.088,3.442,3.442,0,0,1-.413-.124v-.4a4.811,4.811,0,0,0,.7.2,4.05,4.05,0,0,0,.863.088,2.2,2.2,0,0,0,.783-.128,1.164,1.164,0,0,0,.54-.387,1.046,1.046,0,0,0,.2-.653.94.94,0,0,0-.165-.57,1.322,1.322,0,0,0-.493-.382,6.771,6.771,0,0,0-.828-.326,6.533,6.533,0,0,1-.632-.254,2.119,2.119,0,0,1-.485-.308,1.186,1.186,0,0,1-.307-.426,1.494,1.494,0,0,1-.106-.589,1.274,1.274,0,0,1,.237-.786,1.459,1.459,0,0,1,.645-.484,2.45,2.45,0,0,1,.917-.165,3.837,3.837,0,0,1,.772.076,3.388,3.388,0,0,1,.7.227l-.139.343a3.579,3.579,0,0,0-.68-.216,3.311,3.311,0,0,0-.673-.07,1.992,1.992,0,0,0-.709.118,1.1,1.1,0,0,0-.493.354.947.947,0,0,0-.181.6.982.982,0,0,0,.168.6,1.253,1.253,0,0,0,.479.379,6.213,6.213,0,0,0,.736.293,6.213,6.213,0,0,1,.866.358,1.5,1.5,0,0,1,.562.473,1.279,1.279,0,0,1,.2.747" transform="translate(73.981 28.016)" fill="#77af2e"/>
    <path id="Path_81" data-name="Path 81" d="M150.6,60.072a1.982,1.982,0,0,0,.339-.027,1.679,1.679,0,0,0,.277-.07V60.3a2.355,2.355,0,0,1-.29.076,1.962,1.962,0,0,1-.367.033,1.183,1.183,0,0,1-.591-.135.832.832,0,0,1-.357-.405,1.727,1.727,0,0,1-.119-.694V56.454h-.626v-.231l.621-.121.136-.989h.258v1.016h1.31v.325h-1.31v2.7a1.158,1.158,0,0,0,.169.686.631.631,0,0,0,.55.234" transform="translate(76.142 28.19)" fill="#77af2e"/>
    <path id="Path_82" data-name="Path 82" d="M154.176,55.737a1.4,1.4,0,0,1,1.037.348,1.533,1.533,0,0,1,.343,1.109v2.817h-.3l-.07-.735h-.024a1.786,1.786,0,0,1-.328.42,1.373,1.373,0,0,1-.473.287,1.968,1.968,0,0,1-.683.1,1.614,1.614,0,0,1-.694-.135,1.009,1.009,0,0,1-.444-.395,1.2,1.2,0,0,1-.156-.63,1.058,1.058,0,0,1,.517-.952,3.054,3.054,0,0,1,1.489-.369l.781-.039v-.305a1.34,1.34,0,0,0-.255-.921.981.981,0,0,0-.754-.274,2.3,2.3,0,0,0-.624.083,3.328,3.328,0,0,0-.609.237l-.124-.325a3.824,3.824,0,0,1,.648-.236,2.771,2.771,0,0,1,.724-.092m.99,2.137-.735.03a2.71,2.71,0,0,0-1.218.287.808.808,0,0,0-.417.742.76.76,0,0,0,.249.611,1.035,1.035,0,0,0,.694.213,1.372,1.372,0,0,0,1.058-.395,1.536,1.536,0,0,0,.369-1.075Z" transform="translate(77.943 28.509)" fill="#77af2e"/>
    <path id="Path_83" data-name="Path 83" d="M156.5,55.785h.414l1.02,2.668c.062.157.116.3.165.434s.089.255.125.364.065.21.089.3h.023q.057-.177.154-.458c.065-.187.138-.395.221-.624l1.008-2.683h.419l-1.918,4.991a3.254,3.254,0,0,1-.305.617,1.159,1.159,0,0,1-.39.382,1.066,1.066,0,0,1-.541.13,1.51,1.51,0,0,1-.26-.021,2.107,2.107,0,0,1-.224-.056v-.337c.067.021.136.038.207.053a1.238,1.238,0,0,0,.234.021.754.754,0,0,0,.379-.091.877.877,0,0,0,.289-.281,2.479,2.479,0,0,0,.24-.484l.286-.745Z" transform="translate(80.05 28.534)" fill="#77af2e"/>
    <path id="Path_84" data-name="Path 84" d="M167.2,59.048a1.375,1.375,0,0,1-.255.848,1.544,1.544,0,0,1-.692.515,2.675,2.675,0,0,1-.989.171,5.565,5.565,0,0,1-.624-.032,4.419,4.419,0,0,1-.506-.088,3.442,3.442,0,0,1-.413-.124v-.4a4.811,4.811,0,0,0,.7.2,4.05,4.05,0,0,0,.863.088,2.2,2.2,0,0,0,.783-.128,1.164,1.164,0,0,0,.54-.387,1.046,1.046,0,0,0,.2-.653.939.939,0,0,0-.165-.57,1.322,1.322,0,0,0-.493-.382,6.767,6.767,0,0,0-.828-.326,6.533,6.533,0,0,1-.632-.254,2.118,2.118,0,0,1-.485-.308,1.185,1.185,0,0,1-.307-.426,1.493,1.493,0,0,1-.106-.589,1.274,1.274,0,0,1,.237-.786,1.459,1.459,0,0,1,.645-.484,2.45,2.45,0,0,1,.917-.165,3.836,3.836,0,0,1,.772.076,3.388,3.388,0,0,1,.7.227l-.139.343a3.579,3.579,0,0,0-.68-.216,3.311,3.311,0,0,0-.673-.07,1.992,1.992,0,0,0-.709.118,1.1,1.1,0,0,0-.493.354.947.947,0,0,0-.181.6.982.982,0,0,0,.168.6,1.253,1.253,0,0,0,.479.379,6.206,6.206,0,0,0,.736.293,6.215,6.215,0,0,1,.866.358A1.5,1.5,0,0,1,167,58.3a1.279,1.279,0,0,1,.2.747" transform="translate(83.743 28.016)" fill="#77af2e"/>
    <path id="Path_85" data-name="Path 85" d="M169.921,55.737a1.4,1.4,0,0,1,1.037.348,1.533,1.533,0,0,1,.343,1.109v2.817H171l-.07-.735h-.024a1.788,1.788,0,0,1-.328.42,1.373,1.373,0,0,1-.473.287,1.968,1.968,0,0,1-.683.1,1.614,1.614,0,0,1-.694-.135,1.009,1.009,0,0,1-.444-.395,1.2,1.2,0,0,1-.156-.63,1.058,1.058,0,0,1,.517-.952,3.055,3.055,0,0,1,1.489-.369l.781-.039v-.305a1.34,1.34,0,0,0-.255-.921.981.981,0,0,0-.754-.274,2.3,2.3,0,0,0-.624.083,3.325,3.325,0,0,0-.609.237l-.124-.325a3.824,3.824,0,0,1,.648-.236,2.771,2.771,0,0,1,.724-.092m.99,2.137-.735.03a2.71,2.71,0,0,0-1.218.287.808.808,0,0,0-.417.742.76.76,0,0,0,.249.611,1.035,1.035,0,0,0,.694.213,1.372,1.372,0,0,0,1.058-.395,1.536,1.536,0,0,0,.369-1.075Z" transform="translate(85.996 28.509)" fill="#77af2e"/>
    <path id="Path_86" data-name="Path 86" d="M174.471,56.738h-.99v3.877h-.39V56.738h-.781v-.231l.781-.1v-.464a1.937,1.937,0,0,1,.133-.771.934.934,0,0,1,.407-.459,1.385,1.385,0,0,1,.689-.153,2.194,2.194,0,0,1,.391.032,2.655,2.655,0,0,1,.323.083l-.088.33a2.119,2.119,0,0,0-.3-.079,1.811,1.811,0,0,0-.322-.03.783.783,0,0,0-.644.245,1.275,1.275,0,0,0-.2.8v.475h.99Z" transform="translate(88.135 27.906)" fill="#77af2e"/>
    <path id="Path_87" data-name="Path 87" d="M177.539,55.731a1.439,1.439,0,0,1,1.428.94,2.686,2.686,0,0,1,.175,1v.283h-3.035a1.975,1.975,0,0,0,.4,1.33,1.428,1.428,0,0,0,1.146.464,3.188,3.188,0,0,0,.679-.063,3.494,3.494,0,0,0,.639-.219v.36a2.956,2.956,0,0,1-.618.2,3.553,3.553,0,0,1-.71.063,2.006,2.006,0,0,1-1.07-.265,1.652,1.652,0,0,1-.648-.748,2.7,2.7,0,0,1-.219-1.128,2.909,2.909,0,0,1,.212-1.134,1.79,1.79,0,0,1,.618-.794,1.677,1.677,0,0,1,1-.293m0,.337a1.272,1.272,0,0,0-.976.4,1.886,1.886,0,0,0-.438,1.153h2.616a2.274,2.274,0,0,0-.131-.812,1.164,1.164,0,0,0-.4-.547,1.106,1.106,0,0,0-.674-.195" transform="translate(89.873 28.506)" fill="#77af2e"/>
    <path id="Path_88" data-name="Path 88" d="M75.33,54.734l-1.416-3.677H69.546L68.1,54.734h-.747L71.446,44.3h.668L76.1,54.734ZM73.68,50.394l-1.437-3.9c-.038-.1-.085-.227-.139-.384s-.11-.322-.171-.5-.116-.342-.174-.5c-.047.166-.1.333-.157.5s-.11.325-.163.479-.1.293-.15.417L69.8,50.394Z" transform="translate(34.451 22.658)" fill="#fff"/>
    <path id="Path_89" data-name="Path 89" d="M90.86,54.723h-.733v-10.4h5.692v.662H90.86v4.432h4.689v.654H90.86Z" transform="translate(46.099 22.67)" fill="#fff"/>
    <path id="Path_90" data-name="Path 90" d="M113.51,44.321a6.725,6.725,0,0,1,2.068.271,2.32,2.32,0,0,1,1.249.889,3.454,3.454,0,0,1,.132,3.028,2.527,2.527,0,0,1-.794.928,3.775,3.775,0,0,1-1.167.556l2.854,4.731h-.869L114.3,50.2h-2.583v4.525h-.733v-10.4Zm-.071.647h-1.722v4.583h2.071a2.961,2.961,0,0,0,1.988-.612,2.183,2.183,0,0,0,.715-1.758,1.889,1.889,0,0,0-.754-1.735,4.365,4.365,0,0,0-2.3-.478" transform="translate(56.768 22.67)" fill="#fff"/>
    <rect id="Rectangle_41" data-name="Rectangle 41" width="0.733" height="10.402" transform="translate(200.615 66.991)" fill="#fff"/>
    <path id="Path_91" data-name="Path 91" d="M155.777,44.883a4.451,4.451,0,0,0-1.779.339,3.648,3.648,0,0,0-1.323.957,4.228,4.228,0,0,0-.825,1.477,5.939,5.939,0,0,0-.286,1.888,6.35,6.35,0,0,0,.449,2.486,3.522,3.522,0,0,0,1.348,1.648,4.038,4.038,0,0,0,2.245.583,8.022,8.022,0,0,0,1.422-.116,8.4,8.4,0,0,0,1.188-.3v.641a7.192,7.192,0,0,1-1.17.314,8.407,8.407,0,0,1-1.511.119,4.8,4.8,0,0,1-2.615-.668,4.133,4.133,0,0,1-1.59-1.879,6.928,6.928,0,0,1-.534-2.825,6.481,6.481,0,0,1,.334-2.13,4.844,4.844,0,0,1,.978-1.687,4.436,4.436,0,0,1,1.569-1.111,5.328,5.328,0,0,1,2.107-.394,6.712,6.712,0,0,1,1.425.147,6,6,0,0,1,1.277.423l-.284.641a5.1,5.1,0,0,0-1.18-.417,5.853,5.853,0,0,0-1.245-.131" transform="translate(77.132 22.619)" fill="#fff"/>
    <path id="Path_92" data-name="Path 92" d="M180.17,54.734l-1.415-3.677h-4.37l-1.445,3.677h-.747L176.286,44.3h.668l3.986,10.437Zm-1.651-4.339-1.437-3.9c-.038-.1-.085-.227-.138-.384s-.112-.322-.171-.5-.118-.342-.175-.5c-.047.166-.1.333-.157.5s-.11.325-.163.479-.1.293-.15.417l-1.493,3.885Z" transform="translate(88.076 22.658)" fill="#fff"/>
    <path id="Path_93" data-name="Path 93" d="M58.2,18.883V11.126L28.177,0,0,11.75V46.973L.343,49.3l.1.274a17.481,17.481,0,0,0,1.424,3.041,46.714,46.714,0,0,0,4.655,5.862,58.944,58.944,0,0,0,6.474,5.756c.346.266.673.517,1.008.791a88.033,88.033,0,0,0,12.774,8.6l2.05,1.187,22.669-14.9,0,0H40.754L28.628,67.881a78,78,0,0,1-10.9-7.429c-.378-.308-.745-.593-1.138-.895A53.155,53.155,0,0,1,10.685,54.3a43.566,43.566,0,0,1-3.741-4.686,11.644,11.644,0,0,1-.849-1.759L5.9,46.54V15.683l22.4-9.343,24,8.892v3.65Z" fill="#fff"/>
    <path id="Path_94" data-name="Path 94" d="M96.567,10.615c.639-.183,1.267-.358,1.892-.544.248-.074.493-.163.736-.255a1.38,1.38,0,0,0,.831-.848c.154-.429.287-.868.423-1.3.127-.413.245-.828.381-1.242.042.139.086.278.128.417.193.641.384,1.282.583,1.921a2.648,2.648,0,0,0,.192.435,1.28,1.28,0,0,0,.709.614c.363.136.732.254,1.1.366.506.153,1.016.293,1.525.453l-.385.115c-.611.18-1.224.352-1.832.541a3.771,3.771,0,0,0-.642.275,1.334,1.334,0,0,0-.606.762c-.135.373-.251.753-.367,1.132-.136.444-.265.89-.4,1.336l-.021.045c-.073-.242-.142-.472-.21-.7-.151-.5-.293-1.013-.456-1.513a3.477,3.477,0,0,0-.28-.633,1.268,1.268,0,0,0-.719-.57c-.423-.15-.856-.28-1.285-.411s-.845-.245-1.268-.369c-.009,0-.017-.009-.036-.021" transform="translate(49.393 3.284)" fill="#77af2e"/>
    <path id="Path_95" data-name="Path 95" d="M101.863,16.508c-.107-.366-.206-.712-.311-1.057q-.113-.37-.245-.733a.984.984,0,0,0-.641-.617c-.393-.131-.79-.246-1.187-.366-.19-.059-.381-.113-.573-.183l.413-.124,1.2-.351a1.188,1.188,0,0,0,.863-.856c.132-.45.269-.9.405-1.348.024-.08.05-.162.082-.26.038.127.073.239.106.349.138.449.269.9.411,1.345a.96.96,0,0,0,.41.573,2.482,2.482,0,0,0,.506.224c.5.156,1.014.3,1.545.452l-.34.1q-.673.2-1.348.4a1.148,1.148,0,0,0-.8.831l-.467,1.555-.023.059" transform="translate(50.59 5.43)" fill="#77af2e"/>
    <path id="Path_96" data-name="Path 96" d="M104.143,7.844c-.077.026-.138.045-.2.062-.3.088-.591.175-.887.258a.823.823,0,0,0-.614.621c-.092.325-.192.65-.29.975-.006.02-.014.039-.026.074-.067-.225-.128-.434-.192-.644-.045-.153-.1-.3-.141-.456a.793.793,0,0,0-.585-.567c-.349-.1-.7-.2-1.044-.305a.256.256,0,0,1-.045-.02l1.066-.316.062-.02a.8.8,0,0,0,.558-.585c.1-.336.2-.671.3-1.01a.5.5,0,0,0,.023-.063c.059.2.112.384.166.565s.11.345.157.518a.816.816,0,0,0,.611.6c.354.1.706.207,1.076.316" transform="translate(51.211 2.992)" fill="#77af2e"/>
    <path id="Path_97" data-name="Path 97" d="M92.853,41.887Q90.019,31.65,87.182,21.4h11.38q-2.839,10.257-5.671,20.488l-.038,0" transform="translate(44.593 10.946)" fill="#77af2e"/>
    <path id="Path_98" data-name="Path 98" d="M78.912,21.4h.227q5.142,0,10.284-.006c.2,0,.263.062.313.242q2.041,7.5,4.093,15,.667,2.437,1.33,4.878c.006.023.011.045.029.124C89.751,34.869,84.346,28.152,78.912,21.4" transform="translate(40.363 10.941)" fill="#77af2e"/>
    <path id="Path_99" data-name="Path 99" d="M97.785,21.4h10.591Q100.239,31.513,92.141,41.58l-.027-.014Q94.95,31.484,97.785,21.4" transform="translate(47.116 10.945)" fill="#77af2e"/>
    <path id="Path_100" data-name="Path 100" d="M92.618,14.9l4.74,8.378h-9.64c1.508-2.848,3.132-5.624,4.9-8.378" transform="translate(44.867 7.62)" fill="#77af2e"/>
    <path id="Path_101" data-name="Path 101" d="M83.641,14.9c1.645,2.814,3.269,5.593,4.9,8.383H78.9c1.587-2.805,3.159-5.582,4.745-8.383" transform="translate(40.355 7.62)" fill="#77af2e"/>
    <path id="Path_102" data-name="Path 102" d="M96.511,23.28c1.634-2.793,3.256-5.568,4.9-8.383,1.584,2.8,3.155,5.576,4.743,8.383Z" transform="translate(49.365 7.62)" fill="#77af2e"/>
    <path id="Path_103" data-name="Path 103" d="M83.3,14.9h9.828c-1.755,2.734-3.375,5.511-4.912,8.4-1.537-2.888-3.158-5.668-4.915-8.4" transform="translate(42.606 7.623)" fill="#77af2e"/>
    <path id="Path_104" data-name="Path 104" d="M97.009,23.309c-1.537-2.888-3.154-5.67-4.917-8.4h9.826c-1.749,2.734-3.377,5.508-4.909,8.4" transform="translate(47.104 7.624)" fill="#77af2e"/>
    <path id="Path_105" data-name="Path 105" d="M30.4,45.262H12.316V14.8H30.4v6.6H20.545V26.2h9.126v6.6H20.545v5.751H30.4Z" transform="translate(6.3 7.572)" fill="#fff"/>
    <path id="Path_106" data-name="Path 106" d="M48.205,36.16a9.427,9.427,0,0,1-1.25,4.7,9.153,9.153,0,0,1-3.886,3.594,14.683,14.683,0,0,1-6.8,1.375,31.163,31.163,0,0,1-3.656-.189,16.01,16.01,0,0,1-2.928-.614,22.209,22.209,0,0,1-2.811-1.115V36.577a25.164,25.164,0,0,0,5,1.906,18.229,18.229,0,0,0,4.562.656,5.818,5.818,0,0,0,2.01-.292,2.433,2.433,0,0,0,1.156-.8,1.935,1.935,0,0,0,.376-1.177,1.832,1.832,0,0,0-.553-1.345,6.919,6.919,0,0,0-1.759-1.155q-1.208-.605-3.188-1.5a31.4,31.4,0,0,1-3.053-1.625,10.424,10.424,0,0,1-2.332-1.906,7.517,7.517,0,0,1-1.49-2.511,9.966,9.966,0,0,1-.52-3.4A8.143,8.143,0,0,1,28.529,18.5a8.714,8.714,0,0,1,4.042-2.99,16.576,16.576,0,0,1,5.989-1,19.933,19.933,0,0,1,5.364.667A30.364,30.364,0,0,1,48.205,16.7l-2.521,6.354a26.4,26.4,0,0,0-3.854-1.427,13.112,13.112,0,0,0-3.52-.531,4.9,4.9,0,0,0-1.74.26,2.174,2.174,0,0,0-1,.7,1.641,1.641,0,0,0-.322,1,1.765,1.765,0,0,0,.552,1.271,7.245,7.245,0,0,0,1.855,1.22q1.3.655,3.552,1.7A20.418,20.418,0,0,1,45,29.4a7.894,7.894,0,0,1,2.387,2.772,8.737,8.737,0,0,1,.822,3.989" transform="translate(13.745 7.424)" fill="#fff"/>
    <path id="Path_107" data-name="Path 107" d="M58.044,21.264a5.424,5.424,0,0,0-2.6.615,5.634,5.634,0,0,0-1.959,1.781A8.721,8.721,0,0,0,52.242,26.5a15.465,15.465,0,0,0-.426,3.8,13.935,13.935,0,0,0,.729,4.834A5.917,5.917,0,0,0,54.763,38.1a6.569,6.569,0,0,0,3.739,1,13.607,13.607,0,0,0,3.927-.564,39.732,39.732,0,0,0,3.8-1.353v6.957A18.638,18.638,0,0,1,62.1,45.432a24.466,24.466,0,0,1-4.489.4,15.106,15.106,0,0,1-8.115-1.969,11.663,11.663,0,0,1-4.646-5.469,20.616,20.616,0,0,1-1.489-8.126,19.7,19.7,0,0,1,.969-6.333,14.307,14.307,0,0,1,2.843-4.989A12.607,12.607,0,0,1,51.8,15.67a16.243,16.243,0,0,1,6.323-1.156,22.858,22.858,0,0,1,4.657.511,20.731,20.731,0,0,1,4.781,1.635l-2.521,6.48a26.615,26.615,0,0,0-3.375-1.335,11.963,11.963,0,0,0-3.625-.541" transform="translate(22.177 7.424)" fill="#fff"/>
    <path id="Path_108" data-name="Path 108" d="M72.4,14.8a20.225,20.225,0,0,1,6.9,1.01,8.336,8.336,0,0,1,4.135,3.011A8.535,8.535,0,0,1,84.816,23.8a8.8,8.8,0,0,1-.626,3.377A8.577,8.577,0,0,1,82.41,29.9a11.708,11.708,0,0,1-2.761,2.092l8.876,13.272H79.191L72.732,34.178H70.649V45.262h-8.23V14.8Zm-.125,6.227H70.649V27.99h1.542a5.35,5.35,0,0,0,3.1-.833A3.367,3.367,0,0,0,76.5,24.178a2.844,2.844,0,0,0-1-2.313,5.032,5.032,0,0,0-3.229-.834" transform="translate(31.927 7.572)" fill="#fff"/>
    <path id="Path_109" data-name="Path 109" d="M146.589,14.8l-7.5,30.458h-9.729L126.442,31.99q-.084-.374-.26-1.27t-.4-2.042q-.218-1.145-.4-2.261t-.26-1.885q-.084.771-.271,1.885t-.407,2.261q-.22,1.145-.416,2.042t-.283,1.27l-2.937,13.271h-9.73L103.546,14.8h7.938L114.8,30.074q.127.562.345,1.595t.458,2.249q.238,1.22.447,2.344t.292,1.874q.168-1.29.449-2.937t.624-3.343q.345-1.7.656-3.156t.543-2.376L121.3,14.8h7.625l2.6,11.521q.206.9.531,2.365t.667,3.177q.345,1.707.635,3.365t.438,2.905q.125-1.041.417-2.635t.593-3.1q.3-1.51.47-2.281L138.652,14.8Z" transform="translate(52.963 7.572)" fill="#fff"/>
    <path id="Path_110" data-name="Path 110" d="M143.166,14.8q5.895,0,8.614,2.3A8.159,8.159,0,0,1,154.5,23.7a10.6,10.6,0,0,1-.636,3.677,7.837,7.837,0,0,1-2.051,3.062,9.917,9.917,0,0,1-3.718,2.083,18.115,18.115,0,0,1-5.636.76h-3.709v11.98h-3.541V14.8Zm-.334,3.021h-4.084V30.241h3.313a16.141,16.141,0,0,0,4.865-.626,5.441,5.441,0,0,0,2.926-2.031,6.421,6.421,0,0,0,.979-3.739,5.352,5.352,0,0,0-1.938-4.53q-1.938-1.49-6.063-1.49" transform="translate(69.157 7.572)" fill="#77af2e"/>
    <path id="Path_111" data-name="Path 111" d="M160.955,19.6q4.086,0,6.063,1.833T169,27.287V42.809h-2.52l-.667-3.375h-.168a12.381,12.381,0,0,1-2,2.095,7.189,7.189,0,0,1-2.406,1.27,11.33,11.33,0,0,1-3.343.428,8.878,8.878,0,0,1-3.7-.73,5.685,5.685,0,0,1-2.542-2.208,6.958,6.958,0,0,1-.927-3.75,5.962,5.962,0,0,1,2.707-5.249q2.712-1.834,8.251-2l3.939-.168v-1.4q0-2.959-1.271-4.146a5.054,5.054,0,0,0-3.585-1.188,11.089,11.089,0,0,0-3.414.521,23.507,23.507,0,0,0-3.085,1.229l-1.063-2.625a19.114,19.114,0,0,1,3.541-1.354,15.475,15.475,0,0,1,4.208-.562m4.627,11.959L162.1,31.7q-4.274.168-6.02,1.4a4,4,0,0,0-1.752,3.479,3.464,3.464,0,0,0,1.188,2.9,4.941,4.941,0,0,0,3.147.937,7.3,7.3,0,0,0,4.977-1.687,6.351,6.351,0,0,0,1.939-5.063Z" transform="translate(77.096 10.025)" fill="#77af2e"/>
    <path id="Path_112" data-name="Path 112" d="M165.144,19.848h3.708l5.042,13.25q.438,1.168.813,2.24t.667,2.053a18.271,18.271,0,0,1,.458,1.9h.145q.292-1.041.834-2.74t1.167-3.467l4.77-13.23h3.729l-9.937,26.188A17.856,17.856,0,0,1,174.7,49.7a7.521,7.521,0,0,1-2.553,2.406,7.287,7.287,0,0,1-3.625.843,11.672,11.672,0,0,1-1.729-.115,11.96,11.96,0,0,1-1.292-.26V49.807c.305.068.677.131,1.115.187a11.035,11.035,0,0,0,1.365.083,4.817,4.817,0,0,0,2.239-.49,4.7,4.7,0,0,0,1.635-1.427,9.653,9.653,0,0,0,1.188-2.229l1.25-3.209Z" transform="translate(84.47 10.152)" fill="#77af2e"/>
  </g>
</svg>
