<svg xmlns="http://www.w3.org/2000/svg" width="640" height="822.632" viewBox="0 0 640 822.632">
  <path id="Path_51" data-name="Path 51" d="M640,207.63v-85.3L309.831,0,0,129.207V516.491l3.767,25.62,1.068,3.008a193.056,193.056,0,0,0,15.657,33.442c12.106,20.464,44.6,57.894,51.181,64.452,37.446,37.308,56.147,51.707,71.179,63.279,3.82,2.94,7.41,5.7,11.089,8.7,56.284,45.9,101,71.77,140.457,94.593l22.536,13.047L566.2,658.779l-.016-.025H448.112L314.778,746.4c-35.5-20.652-72.929-43.445-119.827-81.692-4.154-3.387-8.206-6.511-12.519-9.831-14.271-10.99-30.452-23.446-64.951-57.818-5.174-5.219-33.029-37.814-41.144-51.533a128.647,128.647,0,0,1-9.331-19.345l-2.12-14.434V172.45L311.234,69.717l263.878,97.773V207.63Z" transform="translate(0.001)" fill="#fff" opacity="0.05"/>
</svg>
